<?xml version="1.0" encoding="UTF-8" standalone="no"?>
<!DOCTYPE svg PUBLIC "-//W3C//DTD SVG 1.1//EN" "http://www.w3.org/Graphics/SVG/1.1/DTD/svg11.dtd">
<svg width="100%" height="100%" viewBox="0 0 72 79" version="1.1" xmlns="http://www.w3.org/2000/svg" xmlns:xlink="http://www.w3.org/1999/xlink" xml:space="preserve" xmlns:serif="http://www.serif.com/" style="fill-rule:evenodd;clip-rule:evenodd;stroke-linejoin:round;stroke-miterlimit:2;">
    <g transform="matrix(1,0,0,1,-464.280297,-216.726728)">
        <g transform="matrix(0.820535,0,0,0.822741,355.72623,-156.796981)">
            <g transform="matrix(0.526899,0,0,0.526899,-76.718178,377.997949)">
                <path d="M553.667,214.443L553.667,288.599C553.667,308.954 537.097,325.479 516.688,325.479L442.729,325.479C422.32,325.479 405.75,308.954 405.75,288.599L405.75,214.443C405.75,194.088 422.32,177.563 442.729,177.563L516.688,177.563C537.097,177.563 553.667,194.088 553.667,214.443Z" style="fill:rgb(0,124,186);"/>
            </g>
            <g transform="matrix(0.424212,0,0,0.420731,-27.458138,404.701517)">
                <path d="M553.667,214.542L553.667,288.5C553.667,308.909 537.189,325.479 516.892,325.479L442.524,325.479C422.228,325.479 405.75,308.909 405.75,288.5L405.75,214.542C405.75,194.132 422.228,177.563 442.524,177.563L516.892,177.563C537.189,177.563 553.667,194.132 553.667,214.542Z" style="fill:white;"/>
            </g>
            <g transform="matrix(0.112448,0,0,0.112448,113.445071,457.291673)">
                <circle cx="413.563" cy="362.458" r="77.604" style="fill:rgb(0,124,186);"/>
            </g>
            <g transform="matrix(0.112448,0,0,0.112448,145.625563,457.291673)">
                <circle cx="413.563" cy="362.458" r="77.604" style="fill:rgb(0,124,186);"/>
            </g>
            <g transform="matrix(0.066155,0,0,0.066155,148.680576,435.154574)">
                <circle cx="413.563" cy="362.458" r="77.604" style="fill:rgb(0,124,186);"/>
            </g>
            <g transform="matrix(0.462471,0,0,0.057243,87.365767,504.071177)">
                <path d="M229.76,388.128L229.76,426.149C229.76,436.641 228.703,445.16 227.401,445.16L156.078,445.16C154.776,445.16 153.718,436.641 153.718,426.149L153.718,388.128C153.718,377.636 154.776,369.118 156.078,369.118L227.401,369.118C228.703,369.118 229.76,377.636 229.76,388.128Z" style="fill:rgb(0,124,186);"/>
            </g>
            <g transform="matrix(0,0.298603,-0.081077,0,249.288031,452.148604)">
                <path d="M229.76,388.128L229.76,426.149C229.76,436.641 227.453,445.16 224.612,445.16L158.866,445.16C156.025,445.16 153.718,436.641 153.718,426.149L153.718,388.128C153.718,377.636 156.025,369.118 158.866,369.118L224.612,369.118C227.453,369.118 229.76,377.636 229.76,388.128Z" style="fill:rgb(0,124,186);"/>
            </g>
            <g transform="matrix(-0.298603,0,-0,-0.081077,233.293642,512.417086)">
                <path d="M229.76,388.128L229.76,426.149C229.76,436.641 227.441,445.16 224.585,445.16L158.894,445.16C156.038,445.16 153.718,436.641 153.718,426.149L153.718,388.128C153.718,377.636 156.038,369.118 158.894,369.118L224.585,369.118C227.441,369.118 229.76,377.636 229.76,388.128Z" style="fill:rgb(0,124,186);"/>
            </g>
            <g transform="matrix(0,0.185932,-0.040538,0,192.544455,433.220206)">
                <path d="M229.76,388.128L229.76,426.149C229.76,436.641 227.908,445.16 225.626,445.16L157.852,445.16C155.571,445.16 153.718,436.641 153.718,426.149L153.718,388.128C153.718,377.636 155.571,369.118 157.852,369.118L225.626,369.118C227.908,369.118 229.76,377.636 229.76,388.128Z" style="fill:rgb(0,124,186);"/>
            </g>
            <g transform="matrix(0,0.298603,-0.081077,0,168.388862,453.27004)">
                <path d="M229.76,388.128L229.76,426.149C229.76,436.641 227.453,445.16 224.612,445.16L158.866,445.16C156.025,445.16 153.718,436.641 153.718,426.149L153.718,388.128C153.718,377.636 156.025,369.118 158.866,369.118L224.612,369.118C227.453,369.118 229.76,377.636 229.76,388.128Z" style="fill:rgb(0,124,186);"/>
            </g>
        </g>
    </g>
</svg>
