<?xml version="1.0" encoding="UTF-8" standalone="no"?><!DOCTYPE svg PUBLIC "-//W3C//DTD SVG 1.1//EN" "http://www.w3.org/Graphics/SVG/1.1/DTD/svg11.dtd"><svg width="100%" height="100%" viewBox="0 0 735 867" version="1.1" xmlns="http://www.w3.org/2000/svg" xmlns:xlink="http://www.w3.org/1999/xlink" xml:space="preserve" xmlns:serif="http://www.serif.com/" style="fill-rule:evenodd;clip-rule:evenodd;stroke-linejoin:round;stroke-miterlimit:2;"><rect x="0" y="0" width="655.284" height="762.322" style="fill:url(#_Linear1);"/><rect x="0" y="0" width="655.284" height="762.322" style="fill:none;"/><path d="M399.172,762.322l-79.619,0l0,-120.876l79.619,0l0,120.876Z" style="fill:#00d1c7;"/><path d="M682.074,206.35l-135.312,-0l0,-81.684l135.312,0l0,81.684Z" style="fill:#00d1c7;"/><path d="M586.096,381.488l-0,79.768c-103.472,0 -187.353,84.493 -187.353,188.72l-79.19,0c0,-148.282 119.335,-268.488 266.543,-268.488Z" style="fill:#00d1c7;"/><path d="M655.284,762.322l-73.209,0l0,-381.161l73.209,0l0,381.161Z" style="fill:#00d1c7;"/><path d="M192.79,762.322l-79.619,0l-0,-208.387l79.619,0l0,208.387Z" style="fill:#00d1c7;"/><path d="M549.685,124.666l0,80.238c-197.087,0 -356.857,160.936 -356.857,359.461l-79.657,0c0,-242.839 195.434,-439.699 436.514,-439.699Z" style="fill:#00d1c7;"/><path d="M549.685,124.666l0,80.238c-197.087,0 -356.857,160.936 -356.857,359.461l-79.657,0c0,-242.839 195.434,-439.699 436.514,-439.699Z" style="fill:none;"/><circle cx="655.284" cy="165.508" r="79.24" style="fill:#fff;"/><circle cx="655.284" cy="165.508" r="57.076" style="fill:#00d1c7;"/><circle cx="655.284" cy="165.508" r="57.076" style="fill:none;"/><g transform="matrix(2.083333,0,0,2.083333,-520.21072,-1011.864238)"><text x="247.999px" y="901.293px" style="font-family:'Poppins-Black', 'Poppins';font-weight:900;font-size:60px;fill:#1f3a5f;">INNOVA</text><g transform="matrix(60,0,0,60,565.939316,901.292828)"></g><text x="500.239px" y="901.293px" style="font-family:'Poppins-Black', 'Poppins';font-weight:900;font-size:60px;fill:#00d1c7;">AI</text></g><defs><linearGradient id="_Linear1" x1="0" y1="0" x2="1" y2="0" gradientUnits="userSpaceOnUse" gradientTransform="matrix(0,3279.166667,-3558.755937,0,1728.501663,67.580409)"><stop offset="0" style="stop-color:#1f3a5f;stop-opacity:1"/><stop offset="0.15" style="stop-color:#105a8b;stop-opacity:1"/><stop offset="0.33" style="stop-color:#0473ae;stop-opacity:1"/><stop offset="1" style="stop-color:#007cba;stop-opacity:1"/></linearGradient></defs></svg>